<?xml version="1.0" encoding="UTF-8"?>
<svg version="1.1" xmlns="http://www.w3.org/2000/svg" width="256" height="256">
<path d="M0 0 C1.216875 -0.00128906 2.43375 -0.00257812 3.6875 -0.00390625 C7.64766365 0.67324437 8.61805531 1.37832097 11 4.5625 C11.390625 8.015625 11.390625 8.015625 11.25 11.8125 C11.21390625 13.07578125 11.1778125 14.3390625 11.140625 15.640625 C11.07101563 17.08695313 11.07101563 17.08695313 11 18.5625 C11.82440866 18.55973462 11.82440866 18.55973462 12.66547203 18.55691338 C26.02682602 18.51278135 39.38816727 18.47979394 52.74957848 18.45887566 C59.21100955 18.44842088 65.67238818 18.43423085 72.13378906 18.41162109 C78.36478824 18.38995303 84.59573685 18.37794415 90.82677078 18.37274551 C93.20871401 18.36903888 95.59065434 18.36180118 97.97257614 18.35103989 C101.29867369 18.33660522 104.62455997 18.33451869 107.95068359 18.33544922 C109.4406913 18.32466339 109.4406913 18.32466339 110.96080017 18.31365967 C111.86386398 18.316409 112.7669278 18.31915833 113.69735718 18.32199097 C114.87817399 18.31922559 114.87817399 18.31922559 116.08284569 18.31640434 C118 18.5625 118 18.5625 120 20.5625 C120.24609566 22.44841957 120.24609566 22.44841957 120.24050903 24.78921509 C120.24463303 26.11856834 120.24463303 26.11856834 120.24884033 27.47477722 C120.2380545 28.93673271 120.2380545 28.93673271 120.22705078 30.42822266 C120.22734283 31.45263962 120.22763489 32.47705658 120.22793579 33.53251648 C120.22653849 36.93061693 120.21095839 40.32850019 120.1953125 43.7265625 C120.1915838 46.07782878 120.18873615 48.42909661 120.18673706 50.78036499 C120.17908938 56.97823351 120.15943115 63.17600875 120.1373291 69.37384033 C120.11689509 75.69452655 120.10774058 82.01522779 120.09765625 88.3359375 C120.07618632 100.74483931 120.04099494 113.15364732 120 125.5625 C132.87 125.5625 145.74 125.5625 159 125.5625 C158.97905273 121.88246826 158.95810547 118.20243652 158.93652344 114.41088867 C158.87034332 102.27311866 158.82589707 90.13536136 158.79275131 77.99746227 C158.77211465 70.63582866 158.74397328 63.27436581 158.69824219 55.9128418 C158.65840783 49.49748873 158.63257521 43.08225931 158.62364602 36.66678602 C158.61842539 33.26889926 158.60613296 29.87136627 158.57707977 26.47359276 C158.54818399 22.68294378 158.54403835 18.89303571 158.54589844 15.10229492 C158.53151733 13.97229065 158.51713623 12.84228638 158.50231934 11.67803955 C158.50781799 10.64738876 158.51331665 9.61673798 158.51898193 8.55485535 C158.51529476 7.65795077 158.51160759 6.7610462 158.50780869 5.8369627 C159 3.5625 159 3.5625 160.83890152 1.77977467 C163.78188613 0.12208963 166.07480409 0.09360008 169.4375 0.0625 C170.54996094 0.0315625 171.66242188 0.000625 172.80859375 -0.03125 C177.18774511 0.78347583 178.35539051 1.96485943 181 5.5625 C181.74182886 9.39362405 181.6623204 13.17456926 181.61523438 17.06640625 C181.62078339 18.22953339 181.6263324 19.39266052 181.63204956 20.59103394 C181.64386107 24.43610822 181.61955303 28.2800081 181.59375 32.125 C181.59203926 34.79632248 181.59200105 37.46759857 181.59387207 40.13891602 C181.59381853 45.73761245 181.57408412 51.33597099 181.54199219 56.93457031 C181.50510071 63.40179604 181.49631696 69.86857927 181.5032897 76.33589649 C181.50960113 82.56431347 181.49882865 88.79257915 181.47932434 95.02096558 C181.47228886 97.66835795 181.46917047 100.3157637 181.47001648 102.96316528 C181.46822049 106.66188772 181.44685407 110.35998012 181.41992188 114.05859375 C181.42285248 115.15485077 181.42578308 116.25110779 181.42880249 117.38058472 C181.4117778 118.89460373 181.4117778 118.89460373 181.39440918 120.43920898 C181.38881611 121.74993629 181.38881611 121.74993629 181.38311005 123.08714294 C180.88032449 126.3357494 180.1746817 128.07192128 178 130.5625 C175.32803602 131.07732662 173.27575154 131.23930861 170.59814453 131.19741821 C169.45816356 131.20911814 169.45816356 131.20911814 168.29515266 131.22105443 C165.7405507 131.24104846 163.18742632 131.22518213 160.6328125 131.20947266 C158.80473966 131.21624553 156.97667364 131.22514679 155.14862061 131.23602295 C150.17751158 131.25886225 145.20692004 131.24996088 140.2358017 131.23412752 C135.04016192 131.22149247 129.84456725 131.23320195 124.64892578 131.24105835 C115.92277041 131.25016191 107.19682643 131.23814846 98.47070312 131.21435547 C88.3736661 131.18714289 78.27713382 131.19595655 68.18010902 131.2234875 C59.52015669 131.24615743 50.86035655 131.24938901 42.20038414 131.23629415 C37.02415057 131.228488 31.84815446 131.22748998 26.67193604 131.24397659 C21.80608677 131.25839134 16.94088996 131.24845467 12.07511139 131.21950531 C10.2864414 131.21287842 8.49771675 131.21481943 6.7090683 131.22581863 C4.27258263 131.23942338 1.83820562 131.22242313 -0.59814453 131.19741821 C-1.31107603 131.20857182 -2.02400753 131.21972543 -2.75854301 131.23121703 C-4.73440552 131.1917057 -4.73440552 131.1917057 -8 130.5625 C-10.81258602 127.34205307 -11.37600657 124.63712745 -11.38768005 120.43920898 C-11.39758469 119.42986298 -11.40748932 118.42051697 -11.41769409 117.38058472 C-11.41319244 116.2843277 -11.4086908 115.18807068 -11.40405273 114.05859375 C-11.41091599 112.89546661 -11.41777924 111.73233948 -11.42485046 110.53396606 C-11.44315215 106.68918655 -11.4392763 102.84481373 -11.43359375 99 C-11.43700116 97.00381752 -11.44041608 95.00763483 -11.44494683 93.01145458 C-11.4589829 86.73773474 -11.45743803 80.46415109 -11.44604492 74.19042969 C-11.43455972 67.72316459 -11.44864776 61.256314 -11.4754414 54.78910351 C-11.49760619 49.23055448 -11.50423421 43.6721355 -11.49836498 38.11354542 C-11.49499656 34.79619172 -11.49911214 31.47916258 -11.51461601 28.16183472 C-11.52946791 24.46304332 -11.51889056 20.76516866 -11.50170898 17.06640625 C-11.51621094 15.42202072 -11.51621094 15.42202072 -11.53100586 13.74441528 C-11.45908481 6.36265665 -11.45908481 6.36265665 -9.17567444 2.3828125 C-6.10262399 -0.18830386 -3.95894717 -0.0712946 0 0 Z M11 31.5625 C11 52.3525 11 73.1425 11 94.5625 C14.96 94.5625 18.92 94.5625 23 94.5625 C23 73.7725 23 52.9825 23 31.5625 C19.04 31.5625 15.08 31.5625 11 31.5625 Z M32 31.5625 C32 52.3525 32 73.1425 32 94.5625 C36.29 94.5625 40.58 94.5625 45 94.5625 C45 73.7725 45 52.9825 45 31.5625 C40.71 31.5625 36.42 31.5625 32 31.5625 Z M54 31.5625 C54 52.3525 54 73.1425 54 94.5625 C58.29 94.5625 62.58 94.5625 67 94.5625 C67 73.7725 67 52.9825 67 31.5625 C62.71 31.5625 58.42 31.5625 54 31.5625 Z M76 31.5625 C76 52.3525 76 73.1425 76 94.5625 C80.29 94.5625 84.58 94.5625 89 94.5625 C89 73.7725 89 52.9825 89 31.5625 C84.71 31.5625 80.42 31.5625 76 31.5625 Z M98 31.5625 C98 52.3525 98 73.1425 98 94.5625 C102.29 94.5625 106.58 94.5625 111 94.5625 C111 73.7725 111 52.9825 111 31.5625 C106.71 31.5625 102.42 31.5625 98 31.5625 Z M11 107.5625 C11 113.5025 11 119.4425 11 125.5625 C14.96 125.5625 18.92 125.5625 23 125.5625 C23 119.6225 23 113.6825 23 107.5625 C19.04 107.5625 15.08 107.5625 11 107.5625 Z M32 107.5625 C32 113.5025 32 119.4425 32 125.5625 C36.29 125.5625 40.58 125.5625 45 125.5625 C45 119.6225 45 113.6825 45 107.5625 C40.71 107.5625 36.42 107.5625 32 107.5625 Z M54 107.5625 C54 113.5025 54 119.4425 54 125.5625 C58.29 125.5625 62.58 125.5625 67 125.5625 C67 119.6225 67 113.6825 67 107.5625 C62.71 107.5625 58.42 107.5625 54 107.5625 Z M76 107.5625 C76 113.5025 76 119.4425 76 125.5625 C80.29 125.5625 84.58 125.5625 89 125.5625 C89 119.6225 89 113.6825 89 107.5625 C84.71 107.5625 80.42 107.5625 76 107.5625 Z M98 107.5625 C98 113.5025 98 119.4425 98 125.5625 C102.29 125.5625 106.58 125.5625 111 125.5625 C111 119.6225 111 113.6825 111 107.5625 C106.71 107.5625 102.42 107.5625 98 107.5625 Z " fill="#FCFCFA" transform="translate(43,66.4375)"/>
<path d="M0 0 C6.36412535 4.58126754 6.36412535 4.58126754 8.125 7.0625 C7.875 9.8125 7.875 9.8125 7.125 12.0625 C4.87890625 12.765625 4.87890625 12.765625 2.125 13.0625 C0.08984375 11.734375 0.08984375 11.734375 -1.9375 9.8125 C-8.07860931 4.74735365 -14.274077 2.97640086 -22.21484375 3.125 C-30.34553651 4.03578939 -36.84524067 6.68276157 -42.44921875 12.7734375 C-42.91972656 13.19882812 -43.39023438 13.62421875 -43.875 14.0625 C-46.5625 13.75 -46.5625 13.75 -48.875 13.0625 C-49.8125 11 -49.8125 11 -49.875 8.0625 C-45.37065049 0.99363034 -36.59991951 -3.09218614 -28.86328125 -5.5859375 C-18.50949494 -7.41666592 -8.79510024 -5.66731582 0 0 Z " fill="#F7F6F1" transform="translate(148.875,25.9375)"/>
<path d="M0 0 C2.37213943 1.76013757 4.34256829 3.54454562 6 6 C6.375 8.875 6.375 8.875 6 11 C3.9375 12.3125 3.9375 12.3125 1 13 C-0.99212559 11.94508886 -2.61507206 10.69569842 -4.3515625 9.26171875 C-7.97730256 6.486567 -11.61949842 6.50542724 -16 7 C-18.40917475 8.41497764 -20.58639967 9.96990011 -22.7890625 11.6875 C-25.39858777 13.23661747 -27.01621056 13.25126648 -30 13 C-30.66 11.35 -31.32 9.7 -32 8 C-23.89040506 -2.66918585 -12.45830596 -6.99963521 0 0 Z " fill="#F8F7F2" transform="translate(141,37)"/>
<path d="M0 0 C2.375 1.625 2.375 1.625 4 4 C4.44912849 7.14389944 4.504106 9.05480125 3 11.875 C-0.22540112 13.68928813 -3.40015346 13.65859978 -7 13 C-9.0625 11.4375 -9.0625 11.4375 -10 9 C-9.875 5.375 -9.875 5.375 -9 2 C-5.50875983 -0.32749345 -4.10777749 -0.50299316 0 0 Z " fill="#F6F5F0" transform="translate(131,50)"/>
</svg>
